<?xml version="1.0" encoding="UTF-8" standalone="no"?>
<svg
   xmlns:dc="http://purl.org/dc/elements/1.1/"
   xmlns:cc="http://creativecommons.org/ns#"
   xmlns:rdf="http://www.w3.org/1999/02/22-rdf-syntax-ns#"
   xmlns:svg="http://www.w3.org/2000/svg"
   xmlns="http://www.w3.org/2000/svg"
   xmlns:xlink="http://www.w3.org/1999/xlink"
   xmlns:sodipodi="http://sodipodi.sourceforge.net/DTD/sodipodi-0.dtd"
   xmlns:inkscape="http://www.inkscape.org/namespaces/inkscape"
   width="665.000000pt"
   height="352.000000pt"
   viewBox="0 0 665.000000 352.000000"
   preserveAspectRatio="xMidYMid meet"
   id="svg2"
   version="1.1"
   inkscape:version="0.91 r13725"
   sodipodi:docname="newLogoWhiteKeele.svg"
   inkscape:export-filename="C:\Users\gavin\Documents\GitHub\GavEdwards.github.io\HackKeele\newLogoWhiteKeele.png"
   inkscape:export-xdpi="90"
   inkscape:export-ydpi="90">
  <metadata
     id="metadata29">
    <rdf:RDF>
      <cc:Work
         rdf:about="">
        <dc:format>image/svg+xml</dc:format>
        <dc:type
           rdf:resource="http://purl.org/dc/dcmitype/StillImage" />
        <dc:title></dc:title>
      </cc:Work>
    </rdf:RDF>
  </metadata>
  <sodipodi:namedview
     pagecolor="#ffffff"
     bordercolor="#666666"
     borderopacity="1"
     objecttolerance="10"
     gridtolerance="10"
     guidetolerance="10"
     inkscape:pageopacity="0"
     inkscape:pageshadow="2"
     inkscape:window-width="1920"
     inkscape:window-height="1017"
     id="namedview27"
     showgrid="false"
     inkscape:zoom="0.72902255"
     inkscape:cx="-56.887278"
     inkscape:cy="345.93144"
     inkscape:window-x="2728"
     inkscape:window-y="225"
     inkscape:window-maximized="1"
     inkscape:current-layer="svg2" />
  <defs
     id="defs4">
    <linearGradient
       id="linearGradient4308"
       inkscape:collect="always">
      <stop
         id="stop4310"
         offset="0"
         style="stop-color:#1cdca4;stop-opacity:1" />
      <stop
         id="stop4312"
         offset="1"
         style="stop-color:#588ddf;stop-opacity:1" />
    </linearGradient>
    <linearGradient
       id="linearGradient4302"
       inkscape:collect="always">
      <stop
         id="stop4304"
         offset="0"
         style="stop-color:#1cdca4;stop-opacity:1" />
      <stop
         id="stop4306"
         offset="1"
         style="stop-color:#588ddf;stop-opacity:1" />
    </linearGradient>
    <linearGradient
       id="linearGradient4296"
       inkscape:collect="always">
      <stop
         id="stop4298"
         offset="0"
         style="stop-color:#1cdca4;stop-opacity:1" />
      <stop
         id="stop4300"
         offset="1"
         style="stop-color:#588ddf;stop-opacity:1" />
    </linearGradient>
    <linearGradient
       inkscape:collect="always"
       id="linearGradient4282">
      <stop
         style="stop-color:#1cdca4;stop-opacity:1"
         offset="0"
         id="stop4284" />
      <stop
         style="stop-color:#588ddf;stop-opacity:1"
         offset="1"
         id="stop4286" />
    </linearGradient>
    <linearGradient
       id="gradient"
       x1="100%"
       y1="100%">
      <stop
         offset="0%"
         stop-color="lightblue"
         id="stop7">
        <animate
           attributeName="stop-color"
           values="#1098ad;#5073b8;#ef4e7b;#ef4e7b;#5073b8;#ef4e7b;#ef4e7b;#a166ab;#1098ad"
           dur="14s"
           repeatCount="indefinite" />
      </stop>
      <stop
         offset="100%"
         stop-color="lightblue"
         id="stop9">
        <animate
           attributeName="stop-color"
           values="#1098ad;#f37055;#a166ab;#a166ab;#1098ad;#a166ab;#a166ab;#5073b8;#1098ad"
           dur="14s"
           repeatCount="indefinite" />
        <animate
           attributeName="offset"
           values=".95;.80;.60;.40;.20;0;.20;.40;.60;.80;.95"
           dur="24s"
           repeatCount="indefinite" />
      </stop>
    </linearGradient>
    <!--
            <filter id="glow">
                <fegaussianblur class="blur" result="coloredBlur" stddeviation="4"></fegaussianblur>
                <femerge>
                    <femergenode in="coloredBlur"></femergenode>
          <femergenode in="coloredBlur"></femergenode>
          <femergenode in="coloredBlur"></femergenode>
                    <femergenode in="SourceGraphic"></femergenode>
                </femerge>
            </filter>
              -->
    <linearGradient
       inkscape:collect="always"
       xlink:href="#gradient"
       id="linearGradient4231"
       x1="3632.0094"
       y1="5126.1982"
       gradientTransform="matrix(1.7318237,0,0,0.57742597,16.996957,-55.584607)"
       x2="3632.0094"
       y2="1650.0939"
       gradientUnits="userSpaceOnUse" />
    <linearGradient
       inkscape:collect="always"
       xlink:href="#gradient"
       id="linearGradient4233"
       x1="1085.2085"
       y1="2365.0652"
       gradientTransform="matrix(4.5482024,0,0,0.21986709,16.996957,-55.584607)"
       x2="1085.2085"
       y2="1637.3529"
       gradientUnits="userSpaceOnUse" />
    <linearGradient
       inkscape:collect="always"
       xlink:href="#linearGradient4282"
       id="linearGradient4288"
       x1="5212.6069"
       y1="1382.4423"
       x2="5230.2148"
       y2="16.229366"
       gradientUnits="userSpaceOnUse" />
    <linearGradient
       inkscape:collect="always"
       xlink:href="#linearGradient4308"
       id="linearGradient4290"
       x1="3737.5742"
       y1="1384.9423"
       x2="3750.373"
       y2="40.676563"
       gradientUnits="userSpaceOnUse" />
    <linearGradient
       inkscape:collect="always"
       xlink:href="#linearGradient4302"
       id="linearGradient4292"
       x1="2256.9556"
       y1="1373.9686"
       x2="2253.5312"
       y2="13.242568"
       gradientUnits="userSpaceOnUse" />
    <linearGradient
       inkscape:collect="always"
       xlink:href="#linearGradient4296"
       id="linearGradient4294"
       x1="716.46863"
       y1="1376.9554"
       x2="713.04456"
       y2="32.689762"
       gradientUnits="userSpaceOnUse" />
  </defs>
  <g
     transform="matrix(0.09930667,0,0,-0.09930667,5.0862112,335.32915)"
     id="g4140"
     style="fill:#ffffff;stroke:none">
    <path
       d="m 296.99696,2155.4154 0,-740 83,-32 c 104,-40 368,-141 472,-180 44,-17 107,-41 140,-54 200.00004,-77 249.00004,-95 335.00004,-128 52,-20 140,-54.00001 195,-75.00001 l 100,-39 3,213.00001 2,214 1665,0 1665,0 0,-216 c 0,-169.00001 3,-215.00001 12,-211.00001 7,3 121,47 253,98.00001 132,51 285,110 340,131 55,21 159,61 230,88 207,78 448,169 478,181 l 27,12 -2,356 -3,356 -35,5 -35,5 38,23 37,24 0,354 0,354 -362,0 c -358,0 -362,0 -385,-22 l -23,-21 0,21 0,22 -364,0 -364,0 -14,-30 c -16,-36 -34,-34 -30,3 l 3,27 -630,0 -631,0 0,-60 0,-60 -45,0 -45,0 0,-65 0,-66 -62,3 -63,3 -3,62 -3,62 -42,3 -42,3 -3,58 -3,57 -609,0 -609,0 -3,-57 -3,-58 -51,-3 -51,-3 -37,61 -37,60 -360,0 c -352,0 -359,0 -359,-20 0,-11 -4,-20 -10,-20 -5,0 -14,9 -20,20 -10,19 -21,20 -375.00004,20 l -365,0 z"
       id="path4142"
       style="fill:#000000;stroke:url(#linearGradient4231);stroke-width:0;stroke-linejoin:round;stroke-miterlimit:4;stroke-dasharray:none"
       inkscape:connector-curvature="0"
       sodipodi:nodetypes="ccccccccccccscsscccccccccccscccccccccccccccccccccccccccccccccssscscc" />
    <path
       d="m 1838.997,902.41539 3,-313 63,-3 62,-3 0,131 c 0,71 3,130 8,130 4,0 13,-10 21,-22 8,-13 50,-71 94,-130 l 79,-108 89,0 c 49,0 89,3 89,7 0,3 -54,73 -121,155 -107,133 -119,152 -107,168 54,75 192,251.00001 204,261.00001 8,6 14,18 14,25 0,11 -18,14 -77,14 -43,0 -83,-4 -89,-8 -6,-4 -50,-61 -98,-127 -48,-66 -92,-121.00001 -97,-123.00001 -5,-2 -9,52.00001 -9,127.00001 l 0,131 -65,0 -65,0 2,-312.00001 z"
       id="path4146"
       inkscape:connector-curvature="0"
       style="fill:#ffffff;fill-opacity:1;stroke:#000000;stroke-opacity:1" />
    <path
       d="m 2561.997,1201.4154 c -3,-7 -4,-147 -3,-312.00001 l 3,-300 175,0 175,0 3,63 3,62 -111,0 -110,0 0,60 0,60 105,0 105,0 0,60 0,60 -105,0 -105,0 0,65.00001 0,65 110,0 110,0 0,65 0,65 -175,0 c -132,0 -177,-3 -180,-13 z"
       id="path4148"
       inkscape:connector-curvature="0"
       style="fill:#ffffff;fill-opacity:1;stroke:#000000;stroke-opacity:1" />
    <path
       d="m 3171.997,1202.4154 c -3,-7 -4,-148 -3,-313.00001 l 3,-300 180,0 180,0 0,60 0,60 -107,3 -108,3 0,59 0,60 105,0 105,0 0,60 0,60 -105,0 -105,0 0,65.00001 0,64 108,3 107,3 0,60 0,60 -178,3 c -137,2 -179,0 -182,-10 z"
       id="path4150"
       inkscape:connector-curvature="0"
       style="fill:#ffffff;fill-opacity:1;stroke:#000000;stroke-opacity:1" />
    <path
       d="m 3791.997,1202.4154 c -3,-7 -4,-148 -3,-313.00001 l 3,-300 180,0 180,0 0,60 0,60 -112,3 -113,3 -2,247 -3,247.00001 -63,3 c -44,2 -64,-1 -67,-10 z"
       id="path4152"
       inkscape:connector-curvature="0"
       style="fill:#ffffff;fill-opacity:1;stroke:#000000;stroke-opacity:1" />
    <path
       d="m 4391.997,1202.4154 c -3,-7 -4,-148 -3,-313.00001 l 3,-300 180,0 180,0 0,60 0,60 -107,3 -108,3 0,59 0,60 105,0 105,0 0,60 0,60 -105,0 -105,0 0,65.00001 0,64 108,3 107,3 0,60 0,60 -178,3 c -137,2 -179,0 -182,-10 z"
       id="path4154"
       inkscape:connector-curvature="0"
       style="fill:#ffffff;fill-opacity:1;stroke:#000000;stroke-opacity:1" />
    <path
       d="m 1652.997,445.41539 c 5,-4 29,-15 54,-24 25,-8 92,-35 150,-59 l 105,-43 1319,-3 1318,-2 67,25 c 201,74 271,102 277,108 4,4 -737,7 -1646,7 -934,0 -1650,-4 -1644,-9 z"
       id="path4156"
       style="fill:#000000;stroke:url(#linearGradient4233);stroke-width:0;stroke-linejoin:round;stroke-miterlimit:4;stroke-dasharray:none"
       inkscape:connector-curvature="0" />
  </g>
  <g
     inkscape:groupmode="layer"
     id="layer1"
     inkscape:label="Layer 1"
     style="display:inline">
    <g
       id="g4167"
       transform="matrix(0.1,0,0,-0.1,35.737044,194.60838)"
       style="fill:#ffffff;fill-opacity:1;stroke:none">
      <path
         id="path4169"
         d="m 80,735 0,-645 253,2 252,3 5,255 5,255 120,0 120,0 5,-255 5,-255 255,0 255,0 0,640 0,640 -255,0 -255,0 -3,-252 -2,-253 -125,0 -125,0 -2,253 -3,252 -252,3 -253,2 0,-645 z"
         style="fill:url(#linearGradient4294);fill-opacity:1"
         inkscape:connector-curvature="0" />
      <path
         id="path4171"
         d="m 1747,1373 c -4,-3 -7,-32 -7,-64 l 0,-58 -62,-3 -63,-3 0,-575 0,-575 250,0 250,0 5,255 5,255 125,0 125,0 5,-255 5,-255 250,0 250,0 3,578 2,577 -65,0 -65,0 0,65 0,65 -503,0 c -277,0 -507,-3 -510,-7 z m 631,-380 3,-123 -131,0 -130,0 0,118 c 0,65 3,122 7,126 4,3 61,5 127,4 l 121,-3 3,-122 z"
         style="fill:url(#linearGradient4292);fill-opacity:1"
         inkscape:connector-curvature="0" />
      <path
         id="path4173"
         d="m 3277,1373 c -4,-3 -7,-32 -7,-64 l 0,-58 -62,-3 -63,-3 0,-510 0,-510 62,-3 62,-3 3,-62 3,-62 520,0 520,0 3,127 3,128 -328,2 -328,3 0,380 0,380 328,3 327,2 0,130 0,130 -518,0 c -285,0 -522,-3 -525,-7 z"
         style="fill:url(#linearGradient4290);fill-opacity:1"
         inkscape:connector-curvature="0" />
      <path
         id="path4175"
         d="m 4585,1368 c -3,-7 -4,-296 -3,-643 l 3,-630 253,-3 252,-2 0,247 c 0,137 4,254 8,261 7,9 39,12 128,10 l 119,-3 5,-255 5,-255 253,-3 c 138,-1 252,1 252,5 3,175 0,495 -5,503 -3,5 -30,10 -60,10 -51,0 -54,1 -57,27 -2,21 -10,29 -36,35 -33,9 -33,9 -30,66 3,55 4,57 33,62 24,4 31,11 35,35 5,29 8,30 63,35 l 58,5 0,243 c 0,133 -1,247 -1,252 0,6 -92,10 -255,10 l -255,0 0,-255 0,-256 -127,3 -128,3 -3,253 -2,252 -250,0 c -191,0 -252,-3 -255,-12 z"
         style="fill:url(#linearGradient4288);fill-opacity:1"
         inkscape:connector-curvature="0" />
    </g>
  </g>
</svg>
